<svg xmlns="http://www.w3.org/2000/svg" width="20" height="18" viewBox="0 0 20 18">
  <path id="google-plus2" d="M.016,15.287C.011,15.242.007,15.2,0,15.153.007,15.2.012,15.242.016,15.287ZM4.608,9.934c1.8.048,3-1.63,2.693-3.747A4.376,4.376,0,0,0,3.484,2.321c-1.8-.048-3,1.573-2.693,3.691S2.81,9.886,4.608,9.934ZM20,4.5V3a3.189,3.189,0,0,0-3.333-3H3.334A3.2,3.2,0,0,0,0,2.916,7.284,7.284,0,0,1,4.356,1.259h6.978L9.773,2.447H7.56A3.677,3.677,0,0,1,9.809,6.064,4.107,4.107,0,0,1,7.839,9.333c-1.126.789-1.339,1.12-1.339,1.791,0,.573,1.206,1.547,1.836,1.947,1.843,1.169,2.44,2.256,2.44,4.068a3.211,3.211,0,0,1-.119.861h6.011A3.188,3.188,0,0,0,20,15V5.625h-3.75V9H15V5.625h-3.75V4.5H15V1.126h1.25V4.5H20ZM3.631,13.464c.422,0,.809-.01,1.21-.01a2.351,2.351,0,0,1-.95-1.729,2.35,2.35,0,0,1,.354-1.169c-.211.014-.426.017-.647.017A5.849,5.849,0,0,1,0,9.45v4.728a9.273,9.273,0,0,1,3.631-.714ZM.067,15.6A2.682,2.682,0,0,1,.018,15.3,2.841,2.841,0,0,0,.067,15.6ZM8.9,16.748C8.6,15.715,7.559,15.2,6.106,14.3a6.429,6.429,0,0,0-1.736-.25A6.092,6.092,0,0,0,.068,15.6,3.279,3.279,0,0,0,3.334,18H8.929a3.376,3.376,0,0,0,.053-.605,2.512,2.512,0,0,0-.086-.646Z" transform="translate(-0.001)" fill="#444"/>
</svg>
