<svg xmlns="http://www.w3.org/2000/svg" width="20" height="18" viewBox="0 0 20 18">
  <path id="pinterest2" d="M16.667,0H3.333A3.18,3.18,0,0,0,0,3V15a3.18,3.18,0,0,0,3.333,3H16.667A3.18,3.18,0,0,0,20,15V3a3.18,3.18,0,0,0-3.333-3ZM11.2,14.133A2.774,2.774,0,0,1,8.905,13.1s-.5,1.718-.623,2.139A9.634,9.634,0,0,1,7.039,17.6l-.683-.218A7.788,7.788,0,0,1,6.39,14.8c.182-.7,1.173-4.474,1.173-4.474a2.981,2.981,0,0,1-.3-1.336A1.994,1.994,0,0,1,9.073,6.8a1.183,1.183,0,0,1,1.266,1.268,16.65,16.65,0,0,1-.828,3A1.353,1.353,0,0,0,10.991,12.7c1.778,0,3.144-1.687,3.144-4.121,0-2.155-1.721-3.661-4.177-3.661-2.845,0-4.516,1.921-4.516,3.905a3.275,3.275,0,0,0,.744,2.054.249.249,0,0,1,.069.258c-.076.285-.244.9-.278,1.021-.044.165-.145.2-.334.12a3.943,3.943,0,0,1-2.03-3.486c0-2.839,2.292-5.446,6.608-5.446,3.469,0,6.165,2.225,6.165,5.2a5.3,5.3,0,0,1-5.189,5.6Z" fill="#444"/>
</svg>
